<?xml version="1.0"?>
<svg xmlns="http://www.w3.org/2000/svg" xmlns:xlink="http://www.w3.org/1999/xlink" version="1.1" id="Capa_1" x="0px" y="0px" viewBox="0 0 512.068 512.068" style="enable-background:new 0 0 512.068 512.068;" xml:space="preserve" width="512px" height="512px"><g><path d="M499.36,121.336c-71.884-49.022-156.024-74.934-243.326-74.934S84.592,72.313,12.708,121.336L0,130.002l166.257,231.086  l11.914-7.43c19.077-11.897,40.563-19.2,62.863-21.468v38.861c-19.422,6.333-33.5,24.606-33.5,46.115  c0,26.743,21.757,48.5,48.5,48.5s48.5-21.757,48.5-48.5c0-21.509-14.078-39.781-33.5-46.115v-38.861  c22.3,2.268,43.786,9.571,62.863,21.468l11.914,7.43l166.257-231.086L499.36,121.336z M256.034,435.667  c-10.201,0-18.5-8.299-18.5-18.5s8.299-18.5,18.5-18.5s18.5,8.299,18.5,18.5S266.235,435.667,256.034,435.667z M337.53,321.23  c-20.668-10.704-43.247-17.202-66.496-19.164V152.878h-30v149.188c-23.249,1.962-45.828,8.46-66.496,19.164L42.489,137.692  c13.561-8.512,27.555-16.16,41.908-22.943l19.166,35.754l26.441-14.174l-17.914-33.418c15.443-5.918,31.236-10.865,47.302-14.824  l7.735,35.512l29.313-6.385l-7.667-35.201c17.198-2.893,34.646-4.685,52.261-5.331V112h30V76.682  c17.403,0.638,34.642,2.395,51.639,5.227l-7.69,35.305l29.313,6.385l7.767-35.659c16.092,3.938,31.91,8.867,47.378,14.77  l-18.022,33.62l26.441,14.174l19.298-36c14.533,6.843,28.698,14.575,42.421,23.188L337.53,321.23z" data-original="#000000" class="active-path" data-old_color="#F8F5F5" fill="#FBFAFA"/></g> </svg>
